<?xml version="1.0" encoding="UTF-8" standalone="no"?>
<!-- Created with Inkscape (http://www.inkscape.org/) -->

<svg
   width="100"
   height="100"
   viewBox="0 0 26.458333 26.458333"
   version="1.1"
   id="svg1"
   inkscape:version="1.3.2 (091e20e, 2023-11-25, custom)"
   sodipodi:docname="Closed.svg"
   xmlns:inkscape="http://www.inkscape.org/namespaces/inkscape"
   xmlns:sodipodi="http://sodipodi.sourceforge.net/DTD/sodipodi-0.dtd"
   xmlns="http://www.w3.org/2000/svg"
   xmlns:svg="http://www.w3.org/2000/svg">
  <sodipodi:namedview
     id="namedview1"
     pagecolor="#505050"
     bordercolor="#eeeeee"
     borderopacity="1"
     inkscape:showpageshadow="0"
     inkscape:pageopacity="0"
     inkscape:pagecheckerboard="0"
     inkscape:deskcolor="#505050"
     inkscape:document-units="mm"
     inkscape:zoom="4.1877625"
     inkscape:cx="77.72647"
     inkscape:cy="62.205055"
     inkscape:window-width="2560"
     inkscape:window-height="1027"
     inkscape:window-x="-8"
     inkscape:window-y="22"
     inkscape:window-maximized="1"
     inkscape:current-layer="layer1" />
  <defs
     id="defs1" />
  <g
     inkscape:label="Ebene 1"
     inkscape:groupmode="layer"
     id="layer1">
    <path
       id="path2"
       style="fill:#000000;fill-opacity:1"
       d="M 13.227616 0.023771159 A 13.207493 13.207493 0 0 0 0.020153809 13.231234 A 13.207493 13.207493 0 0 0 13.227616 26.438696 A 13.207493 13.207493 0 0 0 26.435079 13.231234 A 13.207493 13.207493 0 0 0 13.227616 0.023771159 z M 13.229167 3.7207031 A 9.5086079 9.5086079 0 0 1 22.73763 13.229167 A 9.5086079 9.5086079 0 0 1 13.229167 22.73763 A 9.5086079 9.5086079 0 0 1 3.7207031 13.229167 A 9.5086079 9.5086079 0 0 1 13.229167 3.7207031 z " />
  </g>
</svg>
