<?xml version="1.0" encoding="UTF-8" standalone="no"?>
<!-- Created with Inkscape (http://www.inkscape.org/) -->

<svg
   width="100"
   height="100"
   viewBox="0 0 26.458333 26.458333"
   version="1.1"
   id="svg1"
   inkscape:version="1.3.2 (091e20e, 2023-11-25, custom)"
   sodipodi:docname="Open.svg"
   xmlns:inkscape="http://www.inkscape.org/namespaces/inkscape"
   xmlns:sodipodi="http://sodipodi.sourceforge.net/DTD/sodipodi-0.dtd"
   xmlns="http://www.w3.org/2000/svg"
   xmlns:svg="http://www.w3.org/2000/svg">
  <sodipodi:namedview
     id="namedview1"
     pagecolor="#505050"
     bordercolor="#eeeeee"
     borderopacity="1"
     inkscape:showpageshadow="0"
     inkscape:pageopacity="0"
     inkscape:pagecheckerboard="0"
     inkscape:deskcolor="#505050"
     inkscape:document-units="mm"
     inkscape:zoom="4.1877625"
     inkscape:cx="77.607075"
     inkscape:cy="62.205056"
     inkscape:window-width="2560"
     inkscape:window-height="1027"
     inkscape:window-x="-8"
     inkscape:window-y="22"
     inkscape:window-maximized="1"
     inkscape:current-layer="layer1" />
  <defs
     id="defs1" />
  <g
     inkscape:label="Ebene 1"
     inkscape:groupmode="layer"
     id="layer1">
    <path
       id="rect2"
       d="M 2.1306193 0.012402344 C 1.5896178 0.012402094 1.048613 0.21988099 0.63406982 0.63458659 C -0.19501635 1.4639979 -0.19501635 2.7993079 0.63406982 3.6287191 L 2.5357625 5.5309285 A 13.207493 13.207493 0 0 0 0.020153809 13.231234 A 13.207493 13.207493 0 0 0 2.5331787 20.927922 L 0.64130452 22.818762 C -0.18810679 23.647848 -0.18810678 24.982775 0.64130452 25.811861 C 1.4707157 26.640947 2.8060257 26.640947 3.635437 25.811861 L 5.5257609 23.922054 A 13.207493 13.207493 0 0 0 13.227616 26.438696 A 13.207493 13.207493 0 0 0 20.923787 23.926188 L 22.813595 25.817029 C 23.642681 26.646439 24.977606 26.646439 25.806694 25.817029 C 26.63578 24.987618 26.63578 23.652307 25.806694 22.822896 L 23.91792 20.933606 A 13.207493 13.207493 0 0 0 26.435079 13.231234 A 13.207493 13.207493 0 0 0 23.921537 5.5335124 L 25.823747 3.6323364 C 26.653157 2.8032501 26.653157 1.4683239 25.823747 0.63923747 C 24.994336 -0.18984864 23.659025 -0.18984863 22.829614 0.63923747 L 20.928438 2.5398966 A 13.207493 13.207493 0 0 0 13.227616 0.023771159 A 13.207493 13.207493 0 0 0 5.5293783 2.5378296 L 3.6271688 0.63458659 C 3.2126257 0.21988099 2.6716208 0.012402594 2.1306193 0.012402344 z M 13.229167 3.7207031 A 9.5086079 9.5086079 0 0 1 18.271236 5.1960653 L 13.2271 10.238135 L 8.1870972 5.1960653 A 9.5086079 9.5086079 0 0 1 13.229167 3.7207031 z M 21.264335 8.189681 A 9.5086079 9.5086079 0 0 1 22.73763 13.229167 A 9.5086079 9.5086079 0 0 1 21.260201 18.274337 L 16.219682 13.232267 L 21.264335 8.189681 z M 5.1939982 8.1901978 L 10.23245 13.231234 L 5.1939982 18.268136 A 9.5086079 9.5086079 0 0 1 3.7207031 13.229167 A 9.5086079 9.5086079 0 0 1 5.1939982 8.1901978 z M 13.225549 16.225366 L 18.265035 21.266402 A 9.5086079 9.5086079 0 0 1 13.229167 22.73763 A 9.5086079 9.5086079 0 0 1 8.1870972 21.262268 L 13.225549 16.225366 z " />
  </g>
</svg>
