<?xml version="1.0" encoding="UTF-8" standalone="no"?>
<svg
   viewBox="0 0 32 32"
   version="1.1"
   id="svg4"
   sodipodi:docname="dart.svg"
   width="32"
   height="32"
   inkscape:export-filename="/home/hanjo/Downloads/dart.png"
   inkscape:export-xdpi="96"
   inkscape:export-ydpi="96"
   inkscape:version="1.1.2 (0a00cf5339, 2022-02-04)"
   xmlns:inkscape="http://www.inkscape.org/namespaces/inkscape"
   xmlns:sodipodi="http://sodipodi.sourceforge.net/DTD/sodipodi-0.dtd"
   xmlns="http://www.w3.org/2000/svg"
   xmlns:svg="http://www.w3.org/2000/svg">
  <defs
     id="defs8" />
  <sodipodi:namedview
     id="namedview6"
     pagecolor="#ffffff"
     bordercolor="#666666"
     borderopacity="1.0"
     inkscape:pageshadow="2"
     inkscape:pageopacity="0.0"
     inkscape:pagecheckerboard="true"
     showgrid="false"
     inkscape:zoom="4.97"
     inkscape:cx="3.6217304"
     inkscape:cy="27.464789"
     inkscape:window-width="1366"
     inkscape:window-height="711"
     inkscape:window-x="0"
     inkscape:window-y="20"
     inkscape:window-maximized="1"
     inkscape:current-layer="svg4" />
  <path
     d="m 5.47763,5.4596886 c 0,0 6.742623,-3.3580051 10.113266,-5.03900244 a 4.1085562,4.0947713 0 0 1 1.976217,-0.41891945 c 1.022135,0.06250545 2.237756,1.04796359 2.237756,1.04796359 L 32.025121,13.230312 V 26.248733 H 26.33666 v 5.669375 H 13.062246 L 1.0528259,19.948981 C 0.40431714,19.28403 0,18.346448 0,17.428815 0,17.004576 0.24018841,16.340955 0.42166409,15.959273 Z M 6.3836742,6.3626927 V 22.038259 c 0.00267,0.722138 0.028022,1.361821 0.6645211,2.005493 l 6.5678187,6.544454 H 25.002279 V 24.918828 Z M 22.469626,5.4610185 C 21.270017,4.2694254 20.055733,3.0937912 18.813424,1.9460849 18.410442,1.5910008 18.05683,1.3236903 17.385637,1.3316697 16.891917,1.3502883 16.224726,1.5910008 16.224726,1.5910008 L 8.4613038,5.4596886 Z"
     id="path2"
     style="stroke-width:1.33214;fill:#ffffff;fill-opacity:1" />
</svg>
